<svg xmlns="http://www.w3.org/2000/svg" xmlns:xlink="http://www.w3.org/1999/xlink" width="96" height="99" viewBox="0 0 96 99">
    <defs>
        <path id="a" d="M29.425 4.972c9.201 0 13.678-1.339 22.158-3.667 3.064-.841 5.786-2.961 6.276 2.18.49 5.14-1.902 10.19-3.332 12.766-4.988 7.316-12.794 13.186-25.102 13.297-12.308.11-20.115-5.981-25.102-13.297C2.893 13.674.501 8.625.991 3.485c.49-5.141 3.212-3.021 6.276-2.18 8.48 2.328 12.957 3.667 22.158 3.667z"/>
        <path id="b" d="M54.943 2.108c.47.456.8 1.335.938 2.872.194 2.167-.1 4.317-.605 6.267-10.05 4.699-32.19 7.764-52.076-1.898-.236-1.41-.332-2.885-.198-4.369.148-1.65.516-2.542 1.044-2.966 9.344 3.858 30.324 9.999 50.897.094z"/>
        <path id="c" d="M47.758 23.551c-3.935 3.05-8.868 5.216-15.065 5.825a41.575 41.575 0 0 0-6.368.064c-6.381-.513-11.431-2.79-15.433-5.99 8.435-3.952 22.78-6.01 36.866.101z"/>
    </defs>
    <g fill="none" fill-rule="evenodd" transform="translate(-2 -1)">
        <ellipse cx="50" cy="50.769" fill="#F5C537" rx="47.059" ry="49.231"/>
        <ellipse cx="50" cy="46.154" fill="#FBD872" rx="42.647" ry="41.538"/>
        <g transform="translate(22.059 52.308)">
            <use fill="#000" fill-rule="nonzero" xlink:href="#a"/>
            <use fill="#FFF" fill-rule="nonzero" xlink:href="#b"/>
            <mask id="d" fill="#fff">
                <use xlink:href="#c"/>
            </mask>
            <use fill="#E12C57" fill-rule="nonzero" xlink:href="#c"/>
            <path fill="#000" fill-rule="nonzero" d="M2.982 3.674C2.63 7.372 3.89 11.327 6.028 15.2c5.476 7.992 13.06 12.44 23.379 12.348 10.436-.094 18.038-4.502 23.415-12.348 2.138-3.874 3.398-7.828 3.046-11.526-.071-.744-.19-1.248-.32-1.526-.239.03-.764.187-1.951.607-.608.215-1.03.354-1.484.478-6.337 1.74-7.548 2.057-10.118 2.578-3.95.8-7.704 1.161-12.57 1.161-4.866 0-8.62-.36-12.57-1.161-2.57-.521-3.781-.838-10.118-2.578a20.748 20.748 0 0 1-1.484-.478c-1.187-.42-1.712-.577-1.952-.607-.13.278-.248.782-.319 1.526zm26.443 1.298c9.201 0 13.678-1.339 22.158-3.667 3.064-.841 5.786-2.961 6.276 2.18.49 5.14-1.902 10.19-3.332 12.766-4.988 7.316-12.794 13.186-25.102 13.297-12.308.11-20.115-5.981-25.102-13.297C2.893 13.674.501 8.625.991 3.485c.49-5.141 3.212-3.021 6.276-2.18 8.48 2.328 12.957 3.667 22.158 3.667z" mask="url(#d)"/>
        </g>
        <g fill="#E12C57">
            <path d="M52.75 13.376c1.94-7.242 8.564-11.76 14.794-10.09 4.366 1.17 7.38 5.067 8.125 9.786 3.005-3.714 7.564-5.582 11.929-4.413 6.23 1.67 9.707 8.893 7.767 16.135-1.888 7.046-11.488 14.344-28.8 21.896C55.428 31.676 50.823 20.572 52.75 13.376zM45.887 13.376c-1.94-7.242-8.564-11.76-14.794-10.09-4.365 1.17-7.379 5.067-8.124 9.786-3.006-3.714-7.564-5.582-11.93-4.413-6.23 1.67-9.707 8.893-7.766 16.135C5.16 31.84 14.76 39.138 32.072 46.69 43.21 31.676 47.815 20.572 45.887 13.376z"/>
        </g>
    </g>
</svg>
