<svg xmlns="http://www.w3.org/2000/svg" width="100" height="100" viewBox="0 0 100 100">
    <g fill="none" fill-rule="evenodd">
        <circle cx="50" cy="50" r="50" fill="#FF6423"/>
        <ellipse cx="50" cy="45.313" fill="#FF8C55" rx="45.313" ry="42.188"/>
        <g transform="translate(14.063 37.5)">
            <path fill="#000" d="M10.311 6.357a10.13 10.13 0 0 0-1.302 3.761c-.661 4.7 1.92 8.948 5.766 9.489 3.846.54 7.499-2.832 8.16-7.532a10.13 10.13 0 0 0-.216-3.975L10.31 6.357z"/>
            <path fill="#000" d="M6.782 2.407c7.064-.023 13.053.501 20.556 2.403 3.01 1.298 1.167 5.273-2.04 5.345-7.94-1.4-12.827-2.296-20.04-3.515-6.11-.874-3.964-4.028 1.524-4.233z"/>
            <ellipse cx="12.5" cy="10.156" fill="#FFF" fill-opacity=".8" rx="1.563" ry="2.344"/>
        </g>
        <g transform="matrix(-1 0 0 1 87.5 37.5)">
            <path fill="#000" d="M10.311 6.357a10.13 10.13 0 0 0-1.302 3.761c-.661 4.7 1.92 8.948 5.766 9.489 3.846.54 7.499-2.832 8.16-7.532a10.13 10.13 0 0 0-.216-3.975L10.31 6.357z"/>
            <path fill="#000" d="M6.782 2.407c7.064-.023 13.053.501 20.556 2.403 3.01 1.298 1.167 5.273-2.04 5.345-7.94-1.4-12.827-2.296-20.04-3.515-6.11-.874-3.964-4.028 1.524-4.233z"/>
            <ellipse cx="12.5" cy="10.156" fill="#FFF" fill-opacity=".8" rx="1.563" ry="2.344"/>
        </g>
        <path fill="#000" fill-rule="nonzero" d="M51.896 60.144c4.289-1.5 9.75-1.412 12.323-.597 7.719 2.446 0 11.779-3.477 13.637 1.465-2.24 2.431-6.75-.93-8.6-1.874-1.03-5.254-.74-7.916 0-9.5 2.642-16.942 8.6-19.084 10.89 6.343-8.359 10.83-12.443 19.084-15.33z"/>
    </g>
</svg>
