<svg xmlns="http://www.w3.org/2000/svg" width="100" height="100" viewBox="0 0 100 100">
    <g fill="none" fill-rule="evenodd">
        <circle cx="50" cy="50" r="50" fill="#F5C537"/>
        <ellipse cx="50" cy="45.313" fill="#FBD872" rx="45.313" ry="42.188"/>
        <g transform="translate(25 26.563)">
            <ellipse cx="7.031" cy="9.375" fill="#000" rx="7.031" ry="9.375"/>
            <ellipse cx="4.688" cy="5.469" fill="#FFF" fill-opacity=".8" rx="1.563" ry="2.344"/>
        </g>
        <g transform="translate(60.938 26.563)">
            <ellipse cx="7.031" cy="9.375" fill="#000" rx="7.031" ry="9.375"/>
            <ellipse cx="4.688" cy="5.469" fill="#FFF" fill-opacity=".8" rx="1.563" ry="2.344"/>
        </g>
        <path fill="#000" fill-rule="nonzero" d="M50.163 71.877c9.583-.284 14.286-2.28 18.518-5.82 2.152-1.888 3.91-4.476 3.858-6.313-.052-1.838-3.892-1.17-4.86-.097-2.957 3.278-9.21 5.964-17.589 5.962-8.5.002-14.744-2.684-17.7-5.962-.968-1.073-4.696-1.74-4.748.097-.052 1.837 1.706 4.425 3.858 6.313 4.232 3.54 8.935 5.536 18.518 5.816l.145.004z"/>
    </g>
</svg>
