<svg xmlns="http://www.w3.org/2000/svg" xmlns:xlink="http://www.w3.org/1999/xlink" width="100" height="100" viewBox="0 0 100 100">
    <defs>
        <path id="a" d="M7.984 16.806c5.137.051 7.292-6.636 7.292-12.178C15.729.523 11.422.963 7.69.963S.406 2.507 1.002 7.101c0 5.541 1.846 9.653 6.982 9.705z"/>
        <path id="c" d="M7.984 16.806c5.137.051 7.292-6.636 7.292-12.178C15.729.523 11.422.963 7.69.963S.406 2.507 1.002 7.101c0 5.541 1.846 9.653 6.982 9.705z"/>
    </defs>
    <g fill="none" fill-rule="evenodd">
        <circle cx="50" cy="50" r="50" fill="#F5C537"/>
        <ellipse cx="50" cy="45.313" fill="#FBD872" rx="45.313" ry="42.188"/>
        <path fill="#F5C537" d="M37.676 36.585c-1.47-7.332-3.413-12.434-10.658-9.587-10.29 4.043.982 25.065 6.677 23.14 5.694-1.925 5.451-6.22 3.981-13.553z"/>
        <g transform="scale(-1 1) rotate(11 -187.13 -181.718)">
            <mask id="b" fill="#fff">
                <use xlink:href="#a"/>
            </mask>
            <use fill="#000" xlink:href="#a"/>
            <ellipse cx="11.563" cy="2.344" fill="#FFF" fill-opacity=".8" mask="url(#b)" rx="1.563" ry="2.344"/>
        </g>
        <path fill="#F5C537" d="M57.009 36.585c1.47-7.332 3.414-12.434 10.659-9.587 10.29 4.043-.983 25.065-6.677 23.14-5.695-1.925-5.452-6.22-3.982-13.553z"/>
        <g transform="rotate(11 -139.787 309.955)">
            <mask id="d" fill="#fff">
                <use xlink:href="#c"/>
            </mask>
            <use fill="#000" xlink:href="#c"/>
            <ellipse cx="11.563" cy="2.344" fill="#FFF" fill-opacity=".8" mask="url(#d)" rx="1.563" ry="2.344"/>
        </g>
        <path fill="#000" fill-rule="nonzero" d="M47.055 65.199c10.69-2.31 16.709-2.487 16.756-.084.048 2.403-6.45 4.623-15.023 6.788-8.572 2.166-13.612 1.785-14.822 0-1.21-1.784 2.399-4.395 13.089-6.704z"/>
    </g>
</svg>
