<svg xmlns="http://www.w3.org/2000/svg" xmlns:xlink="http://www.w3.org/1999/xlink" width="100" height="100" viewBox="0 0 100 100">
    <defs>
        <path id="a" d="M31.264 5.05c9.776 0 14.533-1.36 23.543-3.725 3.256-.854 6.148-3.007 6.668 2.214.52 5.221-2.02 10.349-3.54 12.966-5.3 7.43-13.594 13.392-26.671 13.504-13.077.113-21.372-6.074-26.67-13.504C3.074 13.888.533 8.76 1.054 3.54 1.573-1.68 4.464.471 7.72 1.325 16.73 3.69 21.488 5.05 31.264 5.05z"/>
        <path id="b" d="M54.786 1.33l.021-.005c2.682-.704 5.117-2.288 6.183.093-.403 2.818-1.32 6.15-2.423 7.49-2.682 4.462-14.59 7.915-28.44 7.584-9.293-.221-19.193-1.221-28.769-8.211a.427.427 0 0 1-.034-.015c-.301-1.52-.431-3.119-.27-4.727.209-2.102.803-3.009 1.65-3.286C6.667 2.547 17.131 7.395 30.126 7.53c7.628.08 16.282-1.058 24.66-6.2z"/>
    </defs>
    <g fill="none" fill-rule="evenodd">
        <circle cx="50" cy="50" r="50" fill="#F5C537"/>
        <ellipse cx="50" cy="45.313" fill="#FBD872" rx="45.313" ry="42.188"/>
        <g transform="translate(25 26.563)">
            <ellipse cx="7.031" cy="9.375" fill="#000" rx="7.031" ry="9.375"/>
            <ellipse cx="4.688" cy="5.469" fill="#FFF" fill-opacity=".8" rx="1.563" ry="2.344"/>
        </g>
        <g transform="translate(60.938 26.563)">
            <ellipse cx="7.031" cy="9.375" fill="#000" rx="7.031" ry="9.375"/>
            <ellipse cx="4.688" cy="5.469" fill="#FFF" fill-opacity=".8" rx="1.563" ry="2.344"/>
        </g>
        <g transform="translate(18.75 51.563)">
            <use fill="#000" fill-rule="nonzero" xlink:href="#a"/>
            <mask id="c" fill="#fff">
                <use xlink:href="#b"/>
            </mask>
            <use fill="#FFF" fill-rule="nonzero" xlink:href="#b"/>
            <path fill="#000" fill-rule="nonzero" d="M3.043 3.737C2.67 7.48 4.007 11.49 6.276 15.42c5.836 8.14 13.94 12.684 24.97 12.59 11.154-.096 19.275-4.599 25.006-12.59 2.269-3.93 3.606-7.94 3.233-11.683-.08-.801-.217-1.324-.364-1.59-.258-.005-.804.145-2.242.63a22.61 22.61 0 0 1-1.564.483c-6.727 1.765-8.013 2.086-10.737 2.614-4.183.811-8.158 1.176-13.314 1.176-5.156 0-9.13-.365-13.314-1.176-2.724-.528-4.01-.849-10.737-2.614a22.61 22.61 0 0 1-1.564-.482c-1.438-.486-1.984-.636-2.242-.631-.147.266-.284.789-.364 1.59zM31.264 5.05c9.776 0 14.533-1.36 23.543-3.725 3.256-.854 6.148-3.007 6.668 2.214.52 5.221-2.02 10.349-3.54 12.966-5.3 7.43-13.594 13.392-26.671 13.504-13.077.113-21.372-6.074-26.67-13.504C3.074 13.888.533 8.76 1.054 3.54 1.573-1.68 4.464.471 7.72 1.325 16.73 3.69 21.488 5.05 31.264 5.05z" mask="url(#c)"/>
        </g>
    </g>
</svg>
